<mxfile host="www.draw.io" modified="2019-12-07T11:32:28.241Z" agent="Mozilla/5.0 (Windows NT 10.0; Win64; x64) AppleWebKit/537.36 (KHTML, like Gecko) Chrome/78.0.3904.108 Safari/537.36" etag="wMv8lazT050yS8zN_E5H" version="12.3.8" type="github" pages="1">
  <diagram id="3228e29e-7158-1315-38df-8450db1d8a1d" name="Page-1">
    <mxGraphModel dx="1422" dy="762" grid="1" gridSize="10" guides="1" tooltips="1" connect="1" arrows="1" fold="1" page="1" pageScale="1" pageWidth="1169" pageHeight="827" background="#ffffff" math="0" shadow="0">
      <root>
        <mxCell id="0"/>
        <mxCell id="1" parent="0"/>
        <mxCell id="21534" value="Invention" style="text;fontSize=24;align=center;verticalAlign=middle;html=1;fontColor=#FFFFFF;" parent="1" vertex="1">
          <mxGeometry x="299.5" y="228.5" width="190" height="70" as="geometry"/>
        </mxCell>
        <mxCell id="21535" value="Revolution" style="text;fontSize=24;align=center;verticalAlign=middle;html=1;fontColor=#FFFFFF;" parent="1" vertex="1">
          <mxGeometry x="699.5" y="228.5" width="190" height="70" as="geometry"/>
        </mxCell>
        <mxCell id="21536" value="Tradition" style="text;fontSize=24;align=center;verticalAlign=middle;html=1;fontColor=#FFFFFF;" parent="1" vertex="1">
          <mxGeometry x="499.5" y="558.5" width="190" height="70" as="geometry"/>
        </mxCell>
        <mxCell id="21537" value="Military" style="text;align=center;html=1;fontColor=#FFFFFF;fontSize=16;" parent="1" vertex="1">
          <mxGeometry x="569.5" y="198.5" width="40" height="40" as="geometry"/>
        </mxCell>
        <mxCell id="21538" value="Conflict" style="text;align=center;html=1;fontColor=#FFFFFF;fontSize=16;" parent="1" vertex="1">
          <mxGeometry x="449.5" y="418.5" width="40" height="40" as="geometry"/>
        </mxCell>
        <mxCell id="21539" value="Chaos" style="text;align=center;html=1;fontColor=#FFFFFF;fontSize=16;" parent="1" vertex="1">
          <mxGeometry x="699.5" y="418.5" width="40" height="40" as="geometry"/>
        </mxCell>
        <mxCell id="21540" value="Balance" style="text;align=center;html=1;fontColor=#FFFFFF;fontSize=16;" parent="1" vertex="1">
          <mxGeometry x="569.5" y="348.5" width="40" height="40" as="geometry"/>
        </mxCell>
        <mxCell id="E4VTnTYUTapPzkgvzjgV-21540" value="" style="shape=internalStorage;whiteSpace=wrap;html=1;backgroundOutline=1;" vertex="1" parent="1">
          <mxGeometry x="220" y="170" width="500" height="320" as="geometry"/>
        </mxCell>
        <mxCell id="E4VTnTYUTapPzkgvzjgV-21541" value="orderCode" style="rounded=1;whiteSpace=wrap;html=1;fillColor=#dae8fc;strokeColor=#6c8ebf;" vertex="1" parent="1">
          <mxGeometry x="240" y="170" width="60" height="20" as="geometry"/>
        </mxCell>
        <mxCell id="E4VTnTYUTapPzkgvzjgV-21542" value="..." style="rounded=1;whiteSpace=wrap;html=1;fillColor=#dae8fc;strokeColor=#6c8ebf;" vertex="1" parent="1">
          <mxGeometry x="300" y="170" width="60" height="20" as="geometry"/>
        </mxCell>
        <mxCell id="E4VTnTYUTapPzkgvzjgV-21543" value="&lt;span style=&quot;white-space: normal&quot;&gt;...&lt;/span&gt;" style="rounded=1;whiteSpace=wrap;html=1;fillColor=#dae8fc;strokeColor=#6c8ebf;" vertex="1" parent="1">
          <mxGeometry x="360" y="170" width="60" height="20" as="geometry"/>
        </mxCell>
        <mxCell id="E4VTnTYUTapPzkgvzjgV-21544" value="&lt;span style=&quot;white-space: normal&quot;&gt;...&lt;/span&gt;" style="rounded=1;whiteSpace=wrap;html=1;fillColor=#dae8fc;strokeColor=#6c8ebf;" vertex="1" parent="1">
          <mxGeometry x="420" y="170" width="60" height="20" as="geometry"/>
        </mxCell>
        <mxCell id="E4VTnTYUTapPzkgvzjgV-21545" value="&lt;span style=&quot;white-space: normal&quot;&gt;...&lt;/span&gt;" style="rounded=1;whiteSpace=wrap;html=1;fillColor=#dae8fc;strokeColor=#6c8ebf;" vertex="1" parent="1">
          <mxGeometry x="480" y="170" width="60" height="20" as="geometry"/>
        </mxCell>
        <mxCell id="E4VTnTYUTapPzkgvzjgV-21546" value="orderZe" style="rounded=1;whiteSpace=wrap;html=1;fillColor=#dae8fc;strokeColor=#6c8ebf;" vertex="1" parent="1">
          <mxGeometry x="540" y="170" width="60" height="20" as="geometry"/>
        </mxCell>
        <mxCell id="E4VTnTYUTapPzkgvzjgV-21547" value="configList" style="ellipse;whiteSpace=wrap;html=1;fillColor=#d5e8d4;strokeColor=#82b366;" vertex="1" parent="1">
          <mxGeometry x="600" y="170" width="110" height="20" as="geometry"/>
        </mxCell>
        <mxCell id="E4VTnTYUTapPzkgvzjgV-21548" value="1" style="rounded=0;whiteSpace=wrap;html=1;rotation=90;" vertex="1" parent="1">
          <mxGeometry x="200" y="210" width="60" height="20" as="geometry"/>
        </mxCell>
        <mxCell id="E4VTnTYUTapPzkgvzjgV-21549" value="2" style="rounded=0;whiteSpace=wrap;html=1;rotation=90;" vertex="1" parent="1">
          <mxGeometry x="200" y="270" width="60" height="20" as="geometry"/>
        </mxCell>
        <mxCell id="E4VTnTYUTapPzkgvzjgV-21550" value="3" style="rounded=0;whiteSpace=wrap;html=1;rotation=90;" vertex="1" parent="1">
          <mxGeometry x="200" y="330" width="60" height="20" as="geometry"/>
        </mxCell>
        <mxCell id="E4VTnTYUTapPzkgvzjgV-21551" value="4" style="rounded=0;whiteSpace=wrap;html=1;rotation=90;" vertex="1" parent="1">
          <mxGeometry x="200" y="388.5" width="60" height="20" as="geometry"/>
        </mxCell>
        <mxCell id="E4VTnTYUTapPzkgvzjgV-21552" value="5" style="rounded=0;whiteSpace=wrap;html=1;rotation=90;" vertex="1" parent="1">
          <mxGeometry x="200" y="450" width="60" height="20" as="geometry"/>
        </mxCell>
        <mxCell id="E4VTnTYUTapPzkgvzjgV-21553" value="123" style="rounded=0;whiteSpace=wrap;html=1;" vertex="1" parent="1">
          <mxGeometry x="240" y="190" width="60" height="60" as="geometry"/>
        </mxCell>
        <mxCell id="E4VTnTYUTapPzkgvzjgV-21554" value="YYY" style="rounded=0;whiteSpace=wrap;html=1;" vertex="1" parent="1">
          <mxGeometry x="240" y="430" width="60" height="60" as="geometry"/>
        </mxCell>
        <mxCell id="E4VTnTYUTapPzkgvzjgV-21555" value="XXX" style="rounded=0;whiteSpace=wrap;html=1;" vertex="1" parent="1">
          <mxGeometry x="240" y="370" width="60" height="60" as="geometry"/>
        </mxCell>
        <mxCell id="E4VTnTYUTapPzkgvzjgV-21556" value="789" style="rounded=0;whiteSpace=wrap;html=1;" vertex="1" parent="1">
          <mxGeometry x="240" y="310" width="60" height="60" as="geometry"/>
        </mxCell>
        <mxCell id="E4VTnTYUTapPzkgvzjgV-21557" value="456" style="rounded=0;whiteSpace=wrap;html=1;" vertex="1" parent="1">
          <mxGeometry x="240" y="250" width="60" height="60" as="geometry"/>
        </mxCell>
        <mxCell id="E4VTnTYUTapPzkgvzjgV-21558" value="..." style="rounded=0;whiteSpace=wrap;html=1;" vertex="1" parent="1">
          <mxGeometry x="300" y="190" width="60" height="60" as="geometry"/>
        </mxCell>
        <mxCell id="E4VTnTYUTapPzkgvzjgV-21559" value="&lt;span style=&quot;white-space: normal&quot;&gt;...&lt;/span&gt;" style="rounded=0;whiteSpace=wrap;html=1;" vertex="1" parent="1">
          <mxGeometry x="360" y="190" width="60" height="60" as="geometry"/>
        </mxCell>
        <mxCell id="E4VTnTYUTapPzkgvzjgV-21560" value="&lt;span style=&quot;white-space: normal&quot;&gt;...&lt;/span&gt;" style="rounded=0;whiteSpace=wrap;html=1;" vertex="1" parent="1">
          <mxGeometry x="420" y="190" width="60" height="60" as="geometry"/>
        </mxCell>
        <mxCell id="E4VTnTYUTapPzkgvzjgV-21561" value="&lt;span style=&quot;white-space: normal&quot;&gt;...&lt;/span&gt;" style="rounded=0;whiteSpace=wrap;html=1;" vertex="1" parent="1">
          <mxGeometry x="480" y="190" width="60" height="60" as="geometry"/>
        </mxCell>
        <mxCell id="E4VTnTYUTapPzkgvzjgV-21562" value="张冰" style="rounded=0;whiteSpace=wrap;html=1;" vertex="1" parent="1">
          <mxGeometry x="540" y="190" width="60" height="60" as="geometry"/>
        </mxCell>
        <mxCell id="E4VTnTYUTapPzkgvzjgV-21563" value="Object(1,&#39;测试&#39;)&lt;br&gt;Object(2,&#39;嘿嘿&#39;)" style="rounded=0;whiteSpace=wrap;html=1;" vertex="1" parent="1">
          <mxGeometry x="600" y="190" width="120" height="60" as="geometry"/>
        </mxCell>
        <mxCell id="E4VTnTYUTapPzkgvzjgV-21572" value="&lt;span style=&quot;white-space: normal&quot;&gt;...&lt;/span&gt;" style="rounded=0;whiteSpace=wrap;html=1;" vertex="1" parent="1">
          <mxGeometry x="300" y="250" width="60" height="60" as="geometry"/>
        </mxCell>
        <mxCell id="E4VTnTYUTapPzkgvzjgV-21577" value="..." style="rounded=0;whiteSpace=wrap;html=1;" vertex="1" parent="1">
          <mxGeometry x="600" y="250" width="120" height="60" as="geometry"/>
        </mxCell>
        <mxCell id="E4VTnTYUTapPzkgvzjgV-21578" value="张冰" style="rounded=0;whiteSpace=wrap;html=1;" vertex="1" parent="1">
          <mxGeometry x="540" y="250" width="60" height="60" as="geometry"/>
        </mxCell>
        <mxCell id="E4VTnTYUTapPzkgvzjgV-21579" value="&lt;span style=&quot;white-space: normal&quot;&gt;...&lt;/span&gt;" style="rounded=0;whiteSpace=wrap;html=1;" vertex="1" parent="1">
          <mxGeometry x="480" y="250" width="60" height="60" as="geometry"/>
        </mxCell>
        <mxCell id="E4VTnTYUTapPzkgvzjgV-21580" value="&lt;span style=&quot;white-space: normal&quot;&gt;...&lt;/span&gt;" style="rounded=0;whiteSpace=wrap;html=1;" vertex="1" parent="1">
          <mxGeometry x="420" y="250" width="60" height="60" as="geometry"/>
        </mxCell>
        <mxCell id="E4VTnTYUTapPzkgvzjgV-21581" value="&lt;span style=&quot;white-space: normal&quot;&gt;...&lt;/span&gt;" style="rounded=0;whiteSpace=wrap;html=1;" vertex="1" parent="1">
          <mxGeometry x="360" y="250" width="60" height="60" as="geometry"/>
        </mxCell>
        <mxCell id="E4VTnTYUTapPzkgvzjgV-21582" value="&lt;span style=&quot;white-space: normal&quot;&gt;...&lt;/span&gt;" style="rounded=0;whiteSpace=wrap;html=1;" vertex="1" parent="1">
          <mxGeometry x="300" y="310" width="60" height="60" as="geometry"/>
        </mxCell>
        <mxCell id="E4VTnTYUTapPzkgvzjgV-21587" value="..." style="rounded=0;whiteSpace=wrap;html=1;" vertex="1" parent="1">
          <mxGeometry x="600" y="310" width="120" height="60" as="geometry"/>
        </mxCell>
        <mxCell id="E4VTnTYUTapPzkgvzjgV-21588" value="&lt;span style=&quot;white-space: normal&quot;&gt;张冰&lt;/span&gt;" style="rounded=0;whiteSpace=wrap;html=1;" vertex="1" parent="1">
          <mxGeometry x="540" y="310" width="60" height="60" as="geometry"/>
        </mxCell>
        <mxCell id="E4VTnTYUTapPzkgvzjgV-21589" value="&lt;span style=&quot;white-space: normal&quot;&gt;...&lt;/span&gt;" style="rounded=0;whiteSpace=wrap;html=1;" vertex="1" parent="1">
          <mxGeometry x="480" y="310" width="60" height="60" as="geometry"/>
        </mxCell>
        <mxCell id="E4VTnTYUTapPzkgvzjgV-21590" value="&lt;span style=&quot;white-space: normal&quot;&gt;...&lt;/span&gt;" style="rounded=0;whiteSpace=wrap;html=1;" vertex="1" parent="1">
          <mxGeometry x="420" y="310" width="60" height="60" as="geometry"/>
        </mxCell>
        <mxCell id="E4VTnTYUTapPzkgvzjgV-21591" value="&lt;span style=&quot;white-space: normal&quot;&gt;...&lt;/span&gt;" style="rounded=0;whiteSpace=wrap;html=1;" vertex="1" parent="1">
          <mxGeometry x="360" y="310" width="60" height="60" as="geometry"/>
        </mxCell>
        <mxCell id="E4VTnTYUTapPzkgvzjgV-21592" value="&lt;span style=&quot;white-space: normal&quot;&gt;...&lt;/span&gt;" style="rounded=0;whiteSpace=wrap;html=1;" vertex="1" parent="1">
          <mxGeometry x="300" y="370" width="60" height="60" as="geometry"/>
        </mxCell>
        <mxCell id="E4VTnTYUTapPzkgvzjgV-21597" value="..." style="rounded=0;whiteSpace=wrap;html=1;" vertex="1" parent="1">
          <mxGeometry x="600" y="370" width="120" height="60" as="geometry"/>
        </mxCell>
        <mxCell id="E4VTnTYUTapPzkgvzjgV-21598" value="朱伟" style="rounded=0;whiteSpace=wrap;html=1;" vertex="1" parent="1">
          <mxGeometry x="540" y="370" width="60" height="60" as="geometry"/>
        </mxCell>
        <mxCell id="E4VTnTYUTapPzkgvzjgV-21599" value="&lt;span style=&quot;white-space: normal&quot;&gt;...&lt;/span&gt;" style="rounded=0;whiteSpace=wrap;html=1;" vertex="1" parent="1">
          <mxGeometry x="480" y="370" width="60" height="60" as="geometry"/>
        </mxCell>
        <mxCell id="E4VTnTYUTapPzkgvzjgV-21600" value="&lt;span style=&quot;white-space: normal&quot;&gt;...&lt;/span&gt;" style="rounded=0;whiteSpace=wrap;html=1;" vertex="1" parent="1">
          <mxGeometry x="420" y="370" width="60" height="60" as="geometry"/>
        </mxCell>
        <mxCell id="E4VTnTYUTapPzkgvzjgV-21601" value="&lt;span style=&quot;white-space: normal&quot;&gt;...&lt;/span&gt;" style="rounded=0;whiteSpace=wrap;html=1;" vertex="1" parent="1">
          <mxGeometry x="360" y="370" width="60" height="60" as="geometry"/>
        </mxCell>
        <mxCell id="E4VTnTYUTapPzkgvzjgV-21602" value="&lt;span style=&quot;white-space: normal&quot;&gt;...&lt;/span&gt;" style="rounded=0;whiteSpace=wrap;html=1;" vertex="1" parent="1">
          <mxGeometry x="300" y="430" width="60" height="60" as="geometry"/>
        </mxCell>
        <mxCell id="E4VTnTYUTapPzkgvzjgV-21607" value="..." style="rounded=0;whiteSpace=wrap;html=1;" vertex="1" parent="1">
          <mxGeometry x="600" y="430" width="120" height="60" as="geometry"/>
        </mxCell>
        <mxCell id="E4VTnTYUTapPzkgvzjgV-21608" value="&lt;span style=&quot;white-space: normal&quot;&gt;朱伟&lt;/span&gt;" style="rounded=0;whiteSpace=wrap;html=1;" vertex="1" parent="1">
          <mxGeometry x="540" y="430" width="60" height="60" as="geometry"/>
        </mxCell>
        <mxCell id="E4VTnTYUTapPzkgvzjgV-21609" value="&lt;span style=&quot;white-space: normal&quot;&gt;...&lt;/span&gt;" style="rounded=0;whiteSpace=wrap;html=1;" vertex="1" parent="1">
          <mxGeometry x="480" y="430" width="60" height="60" as="geometry"/>
        </mxCell>
        <mxCell id="E4VTnTYUTapPzkgvzjgV-21610" value="" style="rounded=0;whiteSpace=wrap;html=1;" vertex="1" parent="1">
          <mxGeometry x="420" y="430" width="60" height="60" as="geometry"/>
        </mxCell>
        <mxCell id="E4VTnTYUTapPzkgvzjgV-21611" value="&lt;span style=&quot;white-space: normal&quot;&gt;...&lt;/span&gt;" style="rounded=0;whiteSpace=wrap;html=1;" vertex="1" parent="1">
          <mxGeometry x="360" y="430" width="60" height="60" as="geometry"/>
        </mxCell>
        <mxCell id="E4VTnTYUTapPzkgvzjgV-21612" value="..." style="text;html=1;" vertex="1" parent="1">
          <mxGeometry x="440" y="450" width="40" height="30" as="geometry"/>
        </mxCell>
      </root>
    </mxGraphModel>
  </diagram>
</mxfile>
